<?xml version="1.0" encoding="UTF-8"?>
<svg xmlns="http://www.w3.org/2000/svg" xmlns:xlink="http://www.w3.org/1999/xlink" width="24px" height="24px" viewBox="0 0 24 24" version="1.1">
<g id="surface1">
<path style=" stroke:none;fill-rule:evenodd;fill:rgb(98.823529%,98.823529%,98.823529%);fill-opacity:1;" d="M 6.03125 2.691406 C 5.90625 2.785156 5.855469 2.84375 5.710938 3.078125 C 5.484375 3.433594 5.25 4.054688 5.078125 4.746094 C 4.921875 5.355469 4.917969 5.425781 4.90625 6.503906 L 4.894531 7.484375 L 4.78125 7.652344 C 4.226562 8.476562 3.65625 9.996094 3.421875 11.285156 C 3.273438 12.105469 3.253906 12.296875 3.242188 13.019531 C 3.226562 13.796875 3.253906 14.230469 3.339844 14.710938 C 3.597656 16.113281 4.136719 17.246094 5.035156 18.285156 C 6.195312 19.632812 8.066406 20.648438 9.839844 20.894531 C 10.71875 21.019531 11.855469 20.972656 12.683594 20.777344 C 13.703125 20.535156 14.441406 20.230469 15.285156 19.695312 C 16.199219 19.117188 16.992188 18.375 17.746094 17.390625 C 18.980469 15.78125 19.667969 13.730469 19.726562 11.484375 C 19.742188 10.914062 19.71875 10.539062 19.640625 10.191406 C 19.589844 9.953125 19.546875 9.859375 19.464844 9.804688 C 19.414062 9.773438 19.394531 9.773438 19.332031 9.796875 C 19.230469 9.839844 19.199219 9.929688 19.171875 10.304688 C 19.054688 11.851562 18.625 13.125 17.804688 14.355469 C 17.445312 14.890625 17.179688 15.210938 16.707031 15.683594 C 15.914062 16.472656 14.941406 17.152344 13.816406 17.707031 C 11.554688 18.820312 9.375 19.0625 8.269531 18.320312 C 7.980469 18.128906 7.796875 17.933594 7.679688 17.695312 L 7.582031 17.5 L 7.582031 17.085938 C 7.585938 16.675781 7.585938 16.675781 7.671875 16.425781 C 7.824219 15.96875 8.003906 15.6875 8.367188 15.328125 C 8.839844 14.859375 9.460938 14.535156 10.167969 14.390625 C 10.398438 14.34375 10.867188 14.316406 11.847656 14.285156 C 12.726562 14.257812 13.085938 14.214844 13.589844 14.082031 C 14.882812 13.742188 15.820312 12.917969 16.136719 11.84375 C 16.261719 11.425781 16.234375 10.90625 16.070312 10.5625 C 15.976562 10.363281 15.886719 10.25 15.542969 9.882812 C 15.148438 9.464844 15.109375 9.382812 15 8.714844 C 14.921875 8.242188 14.820312 7.914062 14.636719 7.535156 C 14.519531 7.289062 14.296875 6.929688 14.152344 6.742188 C 14.070312 6.640625 14.066406 6.660156 14.1875 6.199219 C 14.332031 5.648438 14.355469 5.441406 14.355469 4.699219 C 14.355469 4.164062 14.347656 4 14.3125 3.808594 C 14.210938 3.265625 14.113281 2.984375 13.980469 2.859375 C 13.929688 2.8125 13.894531 2.800781 13.785156 2.800781 C 13.621094 2.804688 13.429688 2.898438 13.113281 3.132812 C 12.730469 3.421875 12.019531 4.144531 11.597656 4.679688 C 11.484375 4.824219 11.378906 4.945312 11.359375 4.953125 C 11.34375 4.957031 11.261719 4.949219 11.179688 4.933594 C 10.710938 4.835938 9.492188 4.804688 9.078125 4.882812 C 8.734375 4.945312 8.757812 4.953125 8.550781 4.691406 C 7.917969 3.886719 6.761719 2.828125 6.332031 2.664062 C 6.195312 2.609375 6.136719 2.613281 6.03125 2.691406 M 6.167969 3.578125 C 5.894531 4.160156 5.695312 4.863281 5.585938 5.625 C 5.527344 6.03125 5.527344 6.972656 5.589844 7.359375 C 5.609375 7.507812 5.636719 7.71875 5.640625 7.828125 C 5.65625 8.085938 5.636719 8.113281 5.457031 8.046875 L 5.339844 8.003906 L 5.269531 8.085938 C 5.230469 8.132812 5.097656 8.378906 4.96875 8.636719 C 4.359375 9.867188 4.042969 11.003906 3.910156 12.410156 C 3.875 12.804688 3.875 13.785156 3.910156 14.144531 C 4.027344 15.289062 4.351562 16.207031 4.960938 17.125 C 6.097656 18.84375 8.175781 20.085938 10.21875 20.273438 C 10.625 20.308594 11.496094 20.304688 11.832031 20.261719 C 13.492188 20.054688 15.113281 19.238281 16.394531 17.964844 C 16.753906 17.605469 16.867188 17.484375 17.113281 17.179688 C 17.929688 16.164062 18.523438 15.003906 18.890625 13.710938 C 19 13.332031 18.953125 13.332031 18.765625 13.710938 C 18.523438 14.195312 18.09375 14.894531 17.894531 15.125 C 17.882812 15.140625 17.824219 15.214844 17.765625 15.292969 C 17.476562 15.683594 16.777344 16.402344 16.3125 16.792969 C 14.941406 17.9375 13.117188 18.847656 11.566406 19.15625 C 10.96875 19.277344 10.722656 19.300781 10.03125 19.300781 C 9.339844 19.300781 9.144531 19.277344 8.71875 19.15625 C 8.410156 19.066406 7.882812 18.800781 7.6875 18.632812 C 7.300781 18.300781 7.09375 17.992188 6.980469 17.566406 C 6.917969 17.320312 6.910156 16.839844 6.96875 16.539062 C 7.234375 15.195312 8.445312 14.066406 9.953125 13.757812 C 10.308594 13.6875 10.597656 13.667969 11.539062 13.640625 C 12.457031 13.613281 12.988281 13.585938 13.167969 13.546875 C 13.273438 13.523438 13.828125 13.359375 13.851562 13.34375 C 13.886719 13.316406 13.785156 13.300781 13.46875 13.285156 C 12.824219 13.257812 12.582031 13.195312 12.277344 12.992188 C 12.042969 12.839844 11.925781 12.660156 12 12.574219 C 12.042969 12.519531 12.128906 12.53125 12.28125 12.609375 C 12.640625 12.789062 13.097656 12.914062 13.410156 12.914062 C 13.929688 12.914062 14.371094 12.671875 14.507812 12.316406 C 14.558594 12.171875 14.601562 11.945312 14.601562 11.785156 C 14.601562 11.679688 14.597656 11.675781 14.519531 11.648438 C 14.394531 11.605469 14.167969 11.367188 14.121094 11.226562 C 14.074219 11.082031 14.085938 11.046875 14.191406 11.003906 C 14.28125 10.964844 15.09375 10.867188 15.148438 10.886719 C 15.199219 10.90625 15.257812 11.054688 15.257812 11.160156 C 15.257812 11.28125 15.207031 11.375 15.058594 11.53125 L 14.933594 11.660156 L 14.921875 12 C 14.914062 12.273438 14.902344 12.363281 14.863281 12.46875 C 14.808594 12.605469 14.800781 12.679688 14.832031 12.679688 C 14.84375 12.679688 14.960938 12.566406 15.097656 12.429688 C 15.460938 12.050781 15.585938 11.78125 15.585938 11.378906 C 15.585938 11.136719 15.542969 10.941406 15.453125 10.789062 C 15.417969 10.730469 15.238281 10.527344 15.046875 10.335938 C 14.566406 9.847656 14.53125 9.777344 14.367188 8.921875 C 14.257812 8.371094 14.175781 8.101562 14.027344 7.792969 C 13.839844 7.410156 13.660156 7.160156 13.328125 6.832031 C 12.714844 6.226562 12.082031 5.867188 11.261719 5.660156 C 10.742188 5.527344 10.480469 5.496094 9.925781 5.496094 C 9.417969 5.5 9.179688 5.527344 8.785156 5.625 C 8.492188 5.699219 8.523438 5.71875 8.199219 5.3125 C 7.808594 4.828125 7.425781 4.40625 7.050781 4.042969 C 6.726562 3.726562 6.324219 3.375 6.285156 3.375 C 6.273438 3.375 6.222656 3.46875 6.167969 3.578125 M 13.285156 3.828125 C 12.890625 4.191406 12.070312 5.089844 12.070312 5.15625 C 12.070312 5.167969 12.21875 5.253906 12.398438 5.34375 C 12.75 5.523438 13.140625 5.769531 13.375 5.957031 C 13.453125 6.019531 13.527344 6.070312 13.542969 6.070312 C 13.566406 6.070312 13.597656 5.917969 13.652344 5.484375 C 13.683594 5.246094 13.691406 5.058594 13.679688 4.488281 C 13.667969 3.746094 13.652344 3.601562 13.589844 3.589844 C 13.570312 3.585938 13.4375 3.6875 13.285156 3.828125 M 18.546875 4.085938 C 18.515625 4.121094 18.480469 4.234375 18.433594 4.460938 C 18.332031 4.933594 18.101562 5.199219 17.664062 5.355469 C 17.433594 5.4375 17.382812 5.476562 17.382812 5.574219 C 17.382812 5.667969 17.429688 5.703125 17.636719 5.769531 C 17.863281 5.835938 17.949219 5.882812 18.101562 6.023438 C 18.257812 6.167969 18.367188 6.375 18.460938 6.703125 C 18.539062 6.984375 18.550781 7.007812 18.621094 7.007812 C 18.703125 7.007812 18.738281 6.9375 18.796875 6.667969 C 18.90625 6.144531 19.128906 5.902344 19.667969 5.710938 C 19.796875 5.664062 19.84375 5.628906 19.863281 5.5625 C 19.882812 5.492188 19.820312 5.429688 19.671875 5.378906 C 19.113281 5.175781 18.898438 4.945312 18.773438 4.394531 C 18.710938 4.113281 18.617188 3.992188 18.546875 4.085938 M 20.558594 7.113281 C 20.53125 7.132812 20.507812 7.175781 20.507812 7.203125 C 20.507812 7.261719 20.390625 7.507812 20.324219 7.582031 C 20.257812 7.660156 20.140625 7.734375 19.984375 7.796875 C 19.824219 7.863281 19.804688 7.882812 19.804688 7.972656 C 19.804688 8.027344 19.820312 8.039062 19.960938 8.085938 C 20.234375 8.179688 20.429688 8.410156 20.507812 8.734375 C 20.523438 8.800781 20.550781 8.867188 20.566406 8.882812 C 20.613281 8.921875 20.6875 8.875 20.714844 8.785156 C 20.726562 8.742188 20.757812 8.644531 20.777344 8.570312 C 20.847656 8.339844 21.082031 8.128906 21.320312 8.074219 C 21.414062 8.054688 21.453125 8.007812 21.4375 7.9375 C 21.425781 7.890625 21.386719 7.867188 21.253906 7.8125 C 21.027344 7.726562 20.84375 7.550781 20.769531 7.347656 C 20.675781 7.082031 20.648438 7.054688 20.558594 7.113281 M 17.5 7.835938 C 17.480469 7.863281 17.449219 7.953125 17.429688 8.03125 C 17.34375 8.367188 17.195312 8.546875 16.886719 8.683594 C 16.734375 8.75 16.683594 8.785156 16.671875 8.828125 C 16.648438 8.917969 16.675781 8.945312 16.835938 9 C 17.171875 9.109375 17.347656 9.304688 17.414062 9.636719 C 17.453125 9.820312 17.484375 9.890625 17.53125 9.890625 C 17.59375 9.890625 17.617188 9.847656 17.660156 9.667969 C 17.683594 9.578125 17.722656 9.457031 17.75 9.398438 C 17.84375 9.199219 18.066406 9.03125 18.289062 8.988281 C 18.46875 8.953125 18.484375 8.796875 18.3125 8.742188 C 17.9375 8.621094 17.777344 8.445312 17.667969 8.046875 C 17.59375 7.769531 17.5625 7.730469 17.5 7.835938 M 11.695312 9.316406 C 11.609375 9.40625 11.488281 9.5 11.414062 9.535156 C 11.292969 9.59375 11.265625 9.597656 10.992188 9.597656 C 10.648438 9.59375 10.527344 9.566406 10.140625 9.398438 C 9.996094 9.335938 9.855469 9.28125 9.824219 9.269531 C 9.707031 9.234375 9.667969 9.375 9.746094 9.550781 C 9.8125 9.691406 10.050781 9.898438 10.273438 10.003906 C 10.554688 10.140625 10.738281 10.179688 11.085938 10.179688 C 11.339844 10.179688 11.40625 10.171875 11.566406 10.117188 C 11.996094 9.976562 12.230469 9.652344 12.101562 9.382812 C 12.0625 9.304688 11.917969 9.164062 11.871094 9.164062 C 11.855469 9.164062 11.777344 9.234375 11.695312 9.316406 "/>
<path style=" stroke:none;fill-rule:evenodd;fill:rgb(7.843138%,7.843138%,7.843138%);fill-opacity:1;" d="M 4.300781 0.0234375 C 3.84375 0.0429688 3.550781 0.0976562 3.128906 0.238281 C 2.472656 0.453125 1.882812 0.816406 1.40625 1.289062 C 1.160156 1.53125 1.007812 1.722656 0.789062 2.050781 C 0.464844 2.539062 0.300781 2.917969 0.136719 3.5625 L 0.0429688 3.925781 L 0.0195312 5.085938 C -0.0117188 6.886719 0.0078125 19.742188 0.0429688 20.003906 C 0.253906 21.5 1.1875 22.820312 2.511719 23.488281 C 2.855469 23.660156 3.523438 23.859375 4.003906 23.929688 C 4.261719 23.96875 14.472656 24.003906 17.285156 23.976562 C 18.601562 23.964844 19.785156 23.945312 19.921875 23.929688 C 20.269531 23.894531 20.617188 23.824219 20.90625 23.726562 C 22.226562 23.28125 23.242188 22.257812 23.703125 20.910156 C 23.851562 20.484375 23.921875 20.109375 23.953125 19.628906 C 23.96875 19.371094 23.976562 16.554688 23.976562 11.714844 L 23.976562 4.199219 L 23.90625 3.863281 C 23.789062 3.308594 23.667969 2.945312 23.449219 2.503906 C 22.777344 1.164062 21.5625 0.285156 20.0625 0.0507812 C 19.839844 0.0195312 19.125 0.015625 12.257812 0.0117188 C 8.101562 0.0078125 4.519531 0.015625 4.300781 0.0234375 M 6.035156 2.683594 C 5.703125 2.910156 5.328125 3.710938 5.066406 4.769531 C 4.929688 5.316406 4.917969 5.417969 4.902344 6.492188 L 4.882812 7.488281 L 4.738281 7.710938 C 4.449219 8.148438 4.050781 9.03125 3.785156 9.832031 C 3.582031 10.4375 3.4375 11.09375 3.300781 12 C 3.25 12.332031 3.246094 12.441406 3.246094 13.253906 C 3.246094 14.203125 3.253906 14.304688 3.375 14.90625 C 3.605469 16.042969 4.109375 17.140625 4.828125 18.046875 C 5.074219 18.363281 5.707031 18.988281 6.023438 19.234375 C 7.21875 20.160156 8.648438 20.769531 9.984375 20.914062 C 10.664062 20.988281 11.492188 20.980469 12.089844 20.894531 C 12.925781 20.769531 13.878906 20.46875 14.59375 20.097656 C 15.492188 19.632812 16.199219 19.105469 16.90625 18.375 C 18.441406 16.789062 19.320312 14.976562 19.628906 12.761719 C 19.707031 12.175781 19.722656 11.96875 19.722656 11.285156 C 19.722656 10.699219 19.714844 10.542969 19.679688 10.347656 C 19.625 10.0625 19.566406 9.890625 19.488281 9.820312 C 19.441406 9.773438 19.417969 9.769531 19.355469 9.789062 C 19.214844 9.828125 19.195312 9.882812 19.160156 10.347656 C 19.054688 11.636719 18.714844 12.789062 18.148438 13.777344 C 17.199219 15.4375 15.800781 16.710938 13.855469 17.683594 C 11.960938 18.628906 10.03125 18.96875 8.800781 18.574219 C 8.289062 18.40625 7.867188 18.066406 7.671875 17.660156 L 7.59375 17.496094 L 7.59375 17.09375 C 7.59375 16.707031 7.597656 16.679688 7.667969 16.460938 C 7.8125 16 8.023438 15.671875 8.417969 15.292969 C 8.800781 14.925781 9.1875 14.691406 9.703125 14.523438 C 10.210938 14.355469 10.3125 14.34375 11.953125 14.285156 C 12.484375 14.265625 12.875 14.234375 13.132812 14.191406 C 14.28125 13.992188 15.238281 13.425781 15.761719 12.640625 C 15.921875 12.40625 16.082031 12.066406 16.148438 11.835938 C 16.210938 11.617188 16.234375 11.207031 16.199219 10.972656 C 16.136719 10.589844 16.015625 10.382812 15.589844 9.929688 C 15.160156 9.480469 15.121094 9.394531 15.003906 8.714844 C 14.921875 8.246094 14.832031 7.941406 14.671875 7.605469 C 14.53125 7.300781 14.402344 7.082031 14.226562 6.84375 L 14.082031 6.652344 L 14.179688 6.273438 C 14.320312 5.714844 14.347656 5.503906 14.359375 4.84375 C 14.375 4.242188 14.355469 4.007812 14.273438 3.59375 C 14.195312 3.222656 14.113281 3.003906 14 2.886719 C 13.902344 2.785156 13.898438 2.785156 13.773438 2.792969 C 13.617188 2.804688 13.464844 2.878906 13.171875 3.089844 C 12.808594 3.347656 11.992188 4.171875 11.585938 4.6875 C 11.519531 4.769531 11.4375 4.863281 11.40625 4.894531 L 11.347656 4.953125 L 11.09375 4.914062 C 10.464844 4.820312 9.488281 4.804688 9.046875 4.886719 C 8.9375 4.90625 8.824219 4.921875 8.796875 4.921875 C 8.761719 4.921875 8.679688 4.835938 8.511719 4.628906 C 8.058594 4.070312 7.246094 3.28125 6.742188 2.910156 C 6.351562 2.621094 6.203125 2.570312 6.035156 2.683594 M 6.175781 3.59375 C 5.789062 4.4375 5.566406 5.410156 5.546875 6.34375 C 5.535156 6.773438 5.554688 7.058594 5.625 7.582031 C 5.695312 8.082031 5.667969 8.152344 5.449219 8.046875 C 5.371094 8.007812 5.367188 8.011719 5.320312 8.050781 C 5.160156 8.195312 4.691406 9.195312 4.429688 9.949219 C 4.050781 11.054688 3.871094 12.257812 3.898438 13.523438 C 3.914062 14.300781 3.988281 14.828125 4.152344 15.382812 C 4.570312 16.78125 5.476562 18.03125 6.707031 18.90625 C 7.773438 19.664062 8.933594 20.125 10.113281 20.253906 C 10.28125 20.273438 10.652344 20.285156 11.027344 20.285156 C 11.761719 20.285156 12.058594 20.246094 12.742188 20.074219 C 14.953125 19.511719 16.9375 17.867188 18.125 15.609375 C 18.457031 14.976562 18.683594 14.398438 18.914062 13.601562 C 18.984375 13.363281 18.917969 13.421875 18.757812 13.742188 C 18.109375 15.023438 17.109375 16.207031 15.890625 17.128906 C 14.625 18.09375 13.007812 18.859375 11.636719 19.144531 C 11.019531 19.273438 10.761719 19.300781 10.042969 19.300781 C 9.46875 19.300781 9.351562 19.292969 9.105469 19.25 C 8.003906 19.046875 7.207031 18.425781 6.980469 17.582031 C 6.910156 17.328125 6.910156 16.792969 6.976562 16.472656 C 7.207031 15.402344 8.066406 14.441406 9.199219 13.984375 C 9.472656 13.875 9.914062 13.753906 10.1875 13.714844 C 10.421875 13.675781 11.023438 13.644531 11.753906 13.628906 C 12.453125 13.613281 12.953125 13.582031 13.148438 13.546875 C 13.328125 13.511719 13.828125 13.355469 13.828125 13.335938 C 13.828125 13.316406 13.675781 13.300781 13.242188 13.277344 C 12.898438 13.257812 12.675781 13.207031 12.449219 13.097656 C 12.140625 12.949219 11.921875 12.703125 11.992188 12.589844 C 12.035156 12.519531 12.144531 12.53125 12.339844 12.628906 C 12.824219 12.871094 13.34375 12.964844 13.734375 12.882812 C 14.273438 12.765625 14.542969 12.449219 14.589844 11.878906 L 14.601562 11.699219 L 14.480469 11.628906 C 14.269531 11.511719 14.085938 11.273438 14.085938 11.121094 C 14.085938 11.066406 14.136719 11.011719 14.210938 10.984375 C 14.253906 10.96875 15.050781 10.875 15.128906 10.875 C 15.191406 10.875 15.257812 11.027344 15.257812 11.160156 C 15.257812 11.308594 15.1875 11.4375 15.027344 11.582031 L 14.933594 11.667969 L 14.929688 11.941406 C 14.929688 12.234375 14.90625 12.382812 14.847656 12.523438 C 14.765625 12.714844 14.820312 12.699219 15.058594 12.457031 C 15.300781 12.210938 15.410156 12.054688 15.507812 11.808594 C 15.582031 11.632812 15.605469 11.332031 15.566406 11.121094 C 15.515625 10.867188 15.445312 10.757812 15.039062 10.339844 C 14.542969 9.828125 14.523438 9.78125 14.332031 8.789062 C 14.15625 7.867188 13.78125 7.210938 13.089844 6.617188 C 12.515625 6.121094 11.917969 5.816406 11.167969 5.640625 C 10.722656 5.535156 10.429688 5.503906 9.949219 5.5 C 9.476562 5.5 9.3125 5.515625 8.824219 5.625 L 8.519531 5.695312 L 8.464844 5.640625 C 8.433594 5.613281 8.304688 5.457031 8.171875 5.296875 C 7.824219 4.867188 7.503906 4.503906 7.160156 4.160156 C 6.835938 3.832031 6.339844 3.398438 6.292969 3.398438 C 6.277344 3.398438 6.222656 3.484375 6.175781 3.59375 M 13.34375 3.792969 C 13.214844 3.910156 12.972656 4.148438 12.804688 4.328125 C 12.25 4.917969 12.082031 5.117188 12.101562 5.167969 C 12.109375 5.1875 12.242188 5.265625 12.398438 5.34375 C 12.75 5.519531 13.019531 5.6875 13.3125 5.90625 C 13.433594 5.996094 13.539062 6.0625 13.550781 6.050781 C 13.5625 6.042969 13.59375 5.886719 13.621094 5.707031 C 13.667969 5.421875 13.671875 5.285156 13.675781 4.675781 C 13.675781 3.949219 13.660156 3.691406 13.605469 3.621094 C 13.582031 3.582031 13.554688 3.597656 13.34375 3.792969 M 18.527344 4.109375 C 18.507812 4.140625 18.476562 4.242188 18.457031 4.339844 C 18.378906 4.714844 18.285156 4.914062 18.101562 5.089844 C 17.957031 5.222656 17.871094 5.277344 17.640625 5.355469 C 17.449219 5.425781 17.367188 5.496094 17.367188 5.59375 C 17.367188 5.660156 17.464844 5.726562 17.648438 5.78125 C 18.105469 5.914062 18.296875 6.152344 18.492188 6.835938 C 18.539062 7 18.542969 7.007812 18.609375 7.007812 C 18.703125 7.007812 18.742188 6.945312 18.796875 6.675781 C 18.863281 6.382812 18.953125 6.191406 19.109375 6.039062 C 19.246094 5.902344 19.339844 5.84375 19.628906 5.730469 C 19.964844 5.597656 19.957031 5.472656 19.601562 5.34375 C 19.34375 5.25 19.226562 5.183594 19.09375 5.050781 C 18.957031 4.914062 18.859375 4.710938 18.785156 4.417969 C 18.707031 4.097656 18.613281 3.980469 18.527344 4.109375 M 20.546875 7.101562 C 20.527344 7.117188 20.507812 7.144531 20.507812 7.167969 C 20.507812 7.222656 20.375 7.496094 20.304688 7.589844 C 20.261719 7.644531 20.175781 7.703125 20.023438 7.773438 L 19.800781 7.875 L 19.808594 7.960938 C 19.816406 8.042969 19.824219 8.050781 19.910156 8.078125 C 20.210938 8.164062 20.40625 8.375 20.488281 8.710938 C 20.523438 8.863281 20.546875 8.90625 20.597656 8.90625 C 20.664062 8.90625 20.710938 8.839844 20.742188 8.707031 C 20.816406 8.410156 20.980469 8.203125 21.203125 8.121094 C 21.453125 8.035156 21.445312 8.039062 21.445312 7.964844 C 21.445312 7.902344 21.429688 7.890625 21.226562 7.792969 C 20.976562 7.675781 20.882812 7.585938 20.796875 7.382812 C 20.664062 7.078125 20.640625 7.050781 20.546875 7.101562 M 17.488281 7.824219 C 17.476562 7.84375 17.449219 7.933594 17.425781 8.015625 C 17.34375 8.339844 17.175781 8.554688 16.925781 8.664062 C 16.679688 8.769531 16.675781 8.773438 16.667969 8.863281 C 16.660156 8.949219 16.664062 8.953125 16.761719 8.976562 C 17.121094 9.074219 17.351562 9.316406 17.417969 9.675781 C 17.449219 9.847656 17.472656 9.890625 17.542969 9.890625 C 17.609375 9.890625 17.628906 9.855469 17.683594 9.621094 C 17.730469 9.421875 17.785156 9.316406 17.910156 9.195312 C 18.027344 9.085938 18.113281 9.039062 18.265625 9 C 18.382812 8.96875 18.453125 8.90625 18.441406 8.84375 C 18.433594 8.800781 18.375 8.765625 18.128906 8.660156 C 17.886719 8.554688 17.78125 8.417969 17.679688 8.058594 C 17.648438 7.9375 17.609375 7.828125 17.59375 7.8125 C 17.5625 7.769531 17.511719 7.773438 17.488281 7.824219 M 11.664062 9.335938 C 11.472656 9.527344 11.382812 9.570312 11.117188 9.597656 C 10.816406 9.632812 10.523438 9.5625 9.976562 9.328125 C 9.75 9.230469 9.714844 9.242188 9.714844 9.414062 C 9.71875 9.6875 10.085938 9.992188 10.585938 10.128906 C 10.855469 10.203125 11.3125 10.203125 11.546875 10.128906 C 11.730469 10.074219 11.929688 9.953125 12.027344 9.835938 C 12.121094 9.730469 12.167969 9.5625 12.136719 9.453125 C 12.109375 9.355469 11.9375 9.164062 11.875 9.164062 C 11.851562 9.164062 11.757812 9.242188 11.664062 9.335938 "/>
</g>
</svg>
